<svg xmlns="http://www.w3.org/2000/svg" width="128" height="20" fill="none" viewBox="0 0 128 20">
  <path fill="currentColor" d="M114.204 14.636h2.336v.523h-1.737v1.22h1.581v.525h-1.581v1.372h1.737v.526h-2.336v-4.166ZM117.513 14.636h.81l1.841 3.354h.013v-3.354h.595v4.166h-.761l-1.888-3.426h-.013v3.426h-.597v-4.166ZM124.736 15.321a1.688 1.688 0 0 0-.858-.233c-.962 0-1.6.694-1.6 1.628 0 .979.704 1.632 1.568 1.632.299 0 .698-.079.907-.203l.038.578c-.317.13-.706.15-.951.15-1.318 0-2.197-.847-2.197-2.174 0-1.282.93-2.138 2.201-2.138a2.29 2.29 0 0 1 .939.18l-.047.58ZM125.564 14.636h2.334v.523h-1.739v1.22h1.583v.525h-1.583v1.372h1.739v.526h-2.334v-4.166ZM69.77 14.636h2.337l-.001.523h-1.739v1.22h1.58v.525h-1.58v1.372h1.739v.526H69.77v-4.166ZM74.487 14.636h.657l.999 3.57h.01l.89-3.57h.847l.903 3.57h.01l.999-3.57h.633l-1.286 4.166h-.768l-.907-3.643h-.013l-.913 3.643h-.8l-1.261-4.166ZM81.128 14.636h.6v4.166h-.6v-4.166ZM83.761 15.159h-1.295v-.522h3.187v.523h-1.295v3.642h-.597v-3.643ZM86.43 14.636h.597v1.743h1.997v-1.743h.595v4.166h-.595v-1.898h-1.997v1.898h-.597v-4.166ZM95.544 15.321a1.698 1.698 0 0 0-.86-.233c-.962 0-1.6.694-1.6 1.628 0 .979.704 1.632 1.567 1.632.3 0 .703-.079.91-.203l.036.578c-.319.13-.706.15-.949.15-1.321 0-2.2-.847-2.2-2.174 0-1.282.932-2.138 2.202-2.138.322-.007.643.054.94.18l-.046.58Z"/>
  <path fill="currentColor" fill-rule="evenodd" d="M58.238 14.636h-1.022v4.166h.597V16.95h.357c.317 0 .516 0 .701.407l.638 1.446h.68l-.786-1.66c-.133-.253-.222-.345-.406-.415v-.013c.483-.083.86-.444.86-.95 0-.998-.794-1.128-1.62-1.128l.001-.001Zm.085 1.79h-.51V15.16h.574c.55 0 .837.239.837.614 0 .401-.333.65-.9.65l-.001.002ZM63.117 14.636h-.627l-1.78 4.166h.628l.424-1.05h2.04l.424 1.05h.653l-1.762-4.166Zm-1.163 2.628.828-2.067.832 2.067h-1.66ZM66.707 14.636h-1.23v4.166h1.23c1.374 0 2.223-.72 2.223-2.12 0-1.282-.986-2.046-2.223-2.046Zm-.006 3.64h-.627v-3.117h.697c.86 0 1.525.574 1.525 1.548 0 1.074-.57 1.569-1.595 1.569Z" clip-rule="evenodd"/>
  <path fill="currentColor" d="M53.444 15.159h1.295v3.643h.598V15.16h1.297v-.523h-3.19v.522Z"/>
  <path fill="currentColor" fill-rule="evenodd" d="M100.03 16.718c0-1.235-.74-2.155-2.008-2.155-1.265 0-2.007.92-2.007 2.155 0 1.265.736 2.155 2.007 2.155 1.274 0 2.008-.888 2.008-2.155Zm-.634 0c0 .83-.412 1.632-1.374 1.632-.96 0-1.371-.804-1.371-1.632 0-.847.454-1.636 1.371-1.627.92-.01 1.374.78 1.374 1.627Z" clip-rule="evenodd"/>
  <path fill="currentColor" d="M100.9 14.636h.813l1.839 3.354h.013v-3.354h.595v4.166h-.766l-1.886-3.426h-.01v3.426h-.598v-4.166ZM105.212 14.636h2.214v.523h-1.615v1.22h1.545v.525h-1.545v1.898h-.599v-4.166ZM108.262 14.636h.598v4.166h-.598v-4.166Z"/>
  <path fill="currentColor" fill-rule="evenodd" d="M111.142 14.636h-1.231v4.166h1.231c1.374 0 2.221-.72 2.221-2.12 0-1.282-.985-2.046-2.221-2.046Zm-.006 3.64h-.627v-3.117h.697c.86 0 1.521.574 1.521 1.548 0 1.074-.565 1.569-1.591 1.569ZM59.339.708h-.877l-4.745 10.937h1.201l1.334-3.526h4.258l1.412 3.526h2.018L59.339.708Zm-2.859 6.81 1.837-4.875 1.95 4.874-3.787.001Z" clip-rule="evenodd"/>
  <path fill="currentColor" d="M66.522 11.758h.943L71.968.806H70.75l-3.155 8.872-3.43-8.872h-2l4.357 10.952Z"/>
  <path fill="currentColor" fill-rule="evenodd" d="M74.537.708h.876l4.602 10.937h-2.018l-1.412-3.526h-4.259l-1.333 3.526H69.79L74.537.708Zm-.15 1.935-1.834 4.875 3.786-.001-1.952-4.874Z" clip-rule="evenodd"/>
  <path fill="currentColor" d="M79.315.806v.601h3.85v10.238h1.823V1.407h3.835V.806h-9.508Z"/>
  <path fill="currentColor" fill-rule="evenodd" d="M103.573.708h.877l4.6 10.937h-2.014l-1.415-3.526h-4.258l-1.333 3.526h-1.203L103.573.708Zm-.147 1.935-1.835 4.875 3.787-.001-1.952-4.874ZM112.947.806c2.178 0 3.089.162 4.147.764 1.464.812 2.309 2.487 2.307 4.55 0 2.21-.813 3.851-2.343 4.712-1.12.649-2.048.814-4.452.814h-2.648V.806h2.989Zm-.113 10.253c1.886 0 2.861-.342 3.61-1.253.65-.81.992-1.996.99-3.558 0-1.886-.472-3.266-1.381-4.03-.682-.584-1.576-.828-3.006-.828h-1.269v9.669h1.056Z" clip-rule="evenodd"/>
  <path fill="currentColor" d="M127.642.806h-6.761v10.84h7.017v-.602h-5.197v-4.68h4.401v-.602h-4.401V1.407h4.941V.806Z"/>
  <path fill="currentColor" fill-rule="evenodd" d="M96.962 3.617c0-.992-.454-1.804-1.284-2.276-.683-.39-1.464-.538-2.844-.538h-3.347v10.84h1.822V6.64h.97l3.351 5.005h1.985l-3.582-5.203c.045-.009.015-.009.015-.009 1.948-.243 2.914-1.29 2.914-2.816Zm-4.308 2.454c1.546 0 2.39-.845 2.39-2.39 0-.94-.341-1.673-.955-2.013-.378-.212-.867-.31-1.53-.31h-1.252v4.713h1.347Z" clip-rule="evenodd"/>
  <path fill="currentColor" d="M.103 18.786 10.54.708h.186l10.438 18.078h-5.263l-5.267-9.122-5.268 9.122H.103ZM26.74 18.786 37.18.708h.187l10.436 18.078h-5.265l-5.265-9.122-5.268 9.122H26.74ZM23.953 9.83 29.22.708h5.265L23.953 18.95 13.423.708h5.263l5.267 9.122Z"/>
</svg>