
<svg xmlns="http://www.w3.org/2000/svg" fill="none" viewBox="0 0 111 29">
  <path d="M14.934 19.384c-.024-1.35-.355-1.634-.994-1.35-1.207.521-2.532 2.225-5.727 2.225C3.81 20.236 0 15.975 0 10.201 0 4.85 3.81.568 8.189.568c3.171 0 4.331 1.917 5.278 1.917.733 0 .97-.19.946-.97 0-.308.426-.26.426 0a32.407 32.407 0 0 0 0 5.467c.024.379-.402.379-.402 0 0-3.006-2.509-5.988-6.248-5.988-4.615 0-5.254 5.775-5.254 9.23 0 3.81.615 9.61 5.207 9.61 3.81 0 6.319-2.675 6.768-6.249.048-.355.426-.331.403 0a47.786 47.786 0 0 0 0 5.822c.047.26-.355.26-.379-.023ZM24.52 19.999c-.403 0-.403-.497 0-.402.544.047.97.023 1.443-.024.331-.024.331-.118.331-.237v-7.81c0-1.491-.544-1.94-1.372-1.94-2.154.023-3.006 1.893-3.929 3.076v6.603c0 .166.071.26.308.308.52.047.899.047 1.325 0 .426-.047.402.426 0 .426-1.87-.047-3.574-.047-5.49 0-.403 0-.403-.497 0-.426.52.047.922.047 1.372 0 .308-.024.308-.118.308-.237V1.941c0-.26-.071-.45-.426-.497a6.967 6.967 0 0 0-.995 0c-.52.023-.52-.45 0-.426.545.023 1.066.047 1.539.023.45-.023 1.16-.213 1.657-.615.378-.331.426-.379.426.024v11.407c0 .166.023.048.118-.047.923-1.325 2.154-2.674 4.26-2.65 2.793.023 3.077 1.443 3.077 3.029v7.076c0 .166.07.26.307.308.521.047 1.018.047 1.492 0 .402-.047.378.426 0 .426-1.918-.047-3.81-.047-5.752 0ZM37.702 14.603c0-.142-.07-.19-.426-.166-1.278.071-3.48.402-3.48 2.698 0 1.444.238 2.485 1.894 2.485.97 0 1.846-1.207 2.036-1.49v-3.527m2.32 5.656c-1.255 0-2.084-.639-2.273-1.585 0-.048-.047-.048-.07 0-.522.899-1.563 1.585-2.983 1.585-2.035 0-3.242-.97-3.242-2.721 0-2.58 3.62-3.432 5.75-3.48.403 0 .498-.047.498-.165V10.84c0-.947-.497-1.397-1.302-1.397-1.16 0-2.509.26-2.509 1.089 0 .592.876.024.876 1.183 0 .592-.544.994-1.207 1.09-.64.07-1.183-.593-1.136-1.445.07-1.16 1.87-2.272 4.142-2.319 1.87-.024 3.36 1.112 3.36 2.887v6.65c0 .522.072 1.113.781 1.113.355 0 .64-.07.805-.331.237-.331.544-.047.26.237-.473.355-.97.662-1.75.662Z" fill="currentColor"/>
  <path d="M42.317 20.023c-.426 0-.426-.497 0-.426.521.047.9.047 1.373 0 .308-.024.308-.119.308-.237V1.893c0-.26-.119-.45-.45-.497a7.302 7.302 0 0 0-1.018 0c-.497.024-.497-.45 0-.426.568.024 1.089.048 1.539.024.45-.024 1.16-.213 1.656-.615.403-.332.45-.379.45-.071v19.005c0 .165.118.26.308.307.52.048.923.048 1.349 0 .426-.047.402.426 0 .426a85.635 85.635 0 0 0-5.515-.023ZM48.873 20.023c-.426 0-.426-.497 0-.426.52.047.9.047 1.373 0 .307-.024.307-.119.307-.237V1.893c0-.26-.118-.45-.45-.497a7.302 7.302 0 0 0-1.017 0c-.497.024-.497-.45 0-.426.568.024 1.089.048 1.538.024.45-.024 1.16-.213 1.657-.615.403-.332.45-.379.45-.071v19.005c0 .165.118.26.308.307.52.048.923.048 1.349 0 .426-.047.402.426 0 .426a85.636 85.636 0 0 0-5.515-.023ZM62.695 12.899c0-1.633-.213-3.55-2.154-3.48-1.822.048-2.343 1.87-2.343 3.48v.52c0 .119.024.213.166.213h4.023c.237 0 .331-.26.331-.355V12.9m-1.87 7.36c-3.052 0-5.182-2.296-5.182-5.656 0-2.462 2.035-5.562 4.875-5.633 4.213-.118 4.639 3.668 4.639 4.733 0 .166-.213.308-.497.308h-6.39c-.071 0-.142.047-.142.142v1.87c0 1.822.213 3.834 2.674 3.834 2.154 0 3.882-1.396 4.379-3.337.023-.26.45-.308.402 0-.615 2.177-2.367 3.74-4.757 3.74ZM73.677 20.023c-.426 0-.426-.497 0-.426.52.047.899.047 1.372 0 .308-.024.308-.119.308-.237v-7.787c0-1.325-.402-2.011-1.254-2.011-1.846 0-3.29 1.633-3.763 2.532v7.195c0 .166.047.26.26.308.52.047.9.047 1.325 0 .426-.048.403.426 0 .426-1.87-.048-3.574-.048-5.49 0-.403 0-.403-.497 0-.426.52.047.922.047 1.372 0 .308-.024.308-.119.308-.237v-8.686c0-.308-.119-.497-.45-.52a6.957 6.957 0 0 0-.994 0c-.52.023-.52-.45 0-.427.544.024.923.024 1.373 0 .497-.023 1.16-.236 1.68-.591.355-.237.402-.26.45.07.142.805.165 1.586.142 2.462l.07-.26c.687-1.065 2.155-2.272 3.811-2.272 2.793 0 3.337 1.49 3.337 3.076v7.1c0 .166.071.237.26.26a6.39 6.39 0 0 0 1.35 0c.426-.046.402.427 0 .427-1.846-.024-3.55-.024-5.467.024ZM85.558 9.656c-2.225.071-2.13 2.32-2.083 3.81.047 1.776.142 3.693 2.343 3.622 2.225-.071 2.13-1.823 2.083-3.787-.071-2.225-.142-3.74-2.343-3.645Zm2.745 11.858c-1.491-.071-2.816-.142-4.355 0-1.396.142-2.343 1.278-2.343 3.053 0 2.272 1.87 3.148 3.882 3.148 2.65 0 5.443-2.06 5.585-4.497.118-1.373-1.444-1.633-2.769-1.704Zm2.935-10.083c-.52 0-.9-.402-.9-.828 0-.592.166-.757.332-.923-.544.024-1.184.497-1.562 1.018.591.639 1.088 1.727 1.088 2.792 0 2.296-2.39 4.071-4.496 4.071-1.16 0-1.728-.378-2.036-.52-1.301-.048-2.39.26-2.438 1.301-.023.687.545 1.065 1.16 1.089 2.13.118 4.024.07 6.06 0 1.822-.071 2.981 1.089 3.029 3.455.047 3.1-3.006 5.278-6.13 5.278-2.39 0-4.994-.9-4.994-3.455 0-1.491 1.325-2.84 2.603-3.1v-.072c-1.444 0-2.153-1.017-2.106-2.485.047-1.633.828-2.343 2.414-2.272v-.047c-1.207-.781-2.035-1.68-2.035-3.172 0-2.461 2.082-4.354 4.496-4.354 1.278 0 2.414.402 3.172 1.207.497-.568 1.16-1.207 2.059-1.207.78 0 1.373.45 1.373 1.278-.024.662-.545.946-1.09.946ZM99.734 12.899c0-1.633-.213-3.55-2.153-3.48-1.823.048-2.344 1.87-2.344 3.48v.52c0 .119.024.213.166.213h4.024c.236 0 .331-.26.331-.355V12.9m-1.87 7.36c-3.053 0-5.183-2.296-5.183-5.656 0-2.462 2.035-5.562 4.876-5.633 4.212-.118 4.638 3.668 4.638 4.733 0 .166-.213.308-.497.308h-6.39c-.07 0-.142.047-.142.142v1.87c0 1.822.213 3.834 2.675 3.834 2.153 0 3.905-1.396 4.378-3.337.024-.26.45-.308.402 0-.615 2.177-2.366 3.74-4.757 3.74ZM110.243 8.473c-.592.213-1.018-.166-1.184-.615-.189-.568.048-.947.213-1.255-.047-.213-.189-.378-.804-.378-.758 0-1.491.378-1.491 1.775 0 1.846 2.769 1.87 2.769 4.686 0 1.349-1.468 2.887-3.29 2.934-1.633.048-2.485-.922-2.746-1.727-.236-.64-.023-1.42.592-1.657.568-.213 1.089.19 1.255.615.331 1.018-.64 1.09-.45 1.68.094.261.876.64 1.562.474.686-.166 1.609-.45 1.609-1.586 0-1.846-2.532-2.295-2.532-4.591 0-1.183.923-3.171 2.816-3.171 1.373 0 1.965.45 2.32 1.443.26.64-.095 1.16-.639 1.373Z" fill="currentColor"/>
</svg>