<svg xmlns="http://www.w3.org/2000/svg" fill="none" viewBox="0 0 75 12">
  <path d="M29.09 6.03c0 3.89-2.57 5.1-5.83 5.1h-3.29V.93h3.3c3.25 0 5.82 1.22 5.82 5.1zm-6.76-3.06V9.1h.97c1.73 0 3.3-.38 3.3-3.07 0-2.68-1.57-3.06-3.3-3.06h-.97v-.01zM37.93.94v2.1h-5.3v1.8h5v2.12h-5V9h5.3v2.12h-7.64V.93h7.64zM46.36 4.13c-.2-.7-.9-1.37-2.18-1.37-1.45 0-2.57 1.1-2.57 3.25s1.04 3.33 2.6 3.33c1.09 0 2.22-.43 2.22-1.72v-.2h-2.4V5.47h4.75v5.68h-1.8L46.9 10c-.65.89-1.62 1.3-3.06 1.3-2.94 0-4.74-2.04-4.74-5.3 0-3.23 2.07-5.24 5.1-5.24 2.21 0 4 1.14 4.46 3.36h-2.3zM50.49 11.13V.93h2.34v10.2H50.5zM56.9 7.29v3.84h-2.36V.93h3.84c2.58 0 4.52.63 4.52 3.15 0 1.5-.81 2.36-1.95 2.82l2.45 4.23h-2.76l-2.16-3.84h-1.59zm0-2.02h1.54c1.11 0 1.96-.2 1.96-1.15 0-.94-.85-1.14-1.96-1.14h-1.55v2.3zM63.73 6.04c0-3.18 2.1-5.27 5.17-5.27 3.05 0 5.17 2.1 5.17 5.27 0 3.17-2.12 5.26-5.17 5.26-3.07.01-5.17-2.09-5.17-5.26zm7.85 0c0-2.16-1.23-3.3-2.68-3.3-1.46 0-2.68 1.14-2.68 3.3s1.22 3.29 2.68 3.29c1.45 0 2.68-1.12 2.68-3.3zM17.64.94H1.02v4.1h16.62V.94zM17.64 7.02H1.02v4.1h16.62v-4.1z" fill="currentColor"/>
</svg>