<svg xmlns="http://www.w3.org/2000/svg" fill="none" viewBox="0 0 99 22">
  <defs/>
  <path fill="currentColor" d="M9.67 18.19V14.8H4.4v-2.27h4.3V9.17h-4.3V7.1h5.08V3.72H.97V18.2h8.7zM10.65 18.19h3.01v-5.37c0-1.34.25-2.17 1.17-2.17.86 0 1.06.93 1.06 1.97v5.57h3v-6.31c0-2.9-.93-4.52-2.93-4.52-1.14 0-1.88.68-2.56 1.95V7.66h-2.75v10.53zM24.95 15.2h-.48c-.84 0-.94-.35-.94-1.31v-3.82h1.45V7.66h-1.45V4.38h-2.97v3.28h-1.11v2.41h1.07v4.4c0 3.64.48 4.02 4.43 3.72v-3zM26.07 18.19h3v-3.64c0-2.27.63-3.37 1.86-3.37.2 0 .42.02.62.06V7.66c-.13-.02-.26-.02-.39-.02-1.17 0-1.91.15-2.33 1.8h-.03V7.65h-2.73v10.53zM34.59 11.74c0-1.13.5-1.83 1.4-1.83.7 0 1.33.86 1.33 1.83H34.6zm5.74 2.13c.04-3.82-1.65-6.51-4.46-6.51-2.43 0-4.3 2.2-4.3 5.66 0 3.54 1.89 5.47 4.32 5.47 1.76 0 3.67-.86 4.2-3.48H37.2c-.22.63-.66.93-1.13.93-.8 0-1.5-.83-1.5-2.07h5.75zM41.05 7.66v14.1h3.01v-4.62c.51.89 1.12 1.35 1.94 1.35 1.7 0 3.55-1.5 3.55-5.65 0-2.89-1.1-5.48-3.39-5.48-.87 0-1.95.58-2.37 1.87h-.03V7.66h-2.7zm4.19 7.64c-.78 0-1.23-1.01-1.23-2.48 0-1.4.49-2.37 1.21-2.37.8 0 1.32.79 1.32 2.45 0 1.45-.5 2.4-1.3 2.4zM58.98 11.74c0-1.13.5-1.83 1.4-1.83.71 0 1.34.86 1.34 1.83h-2.74zm5.75 2.13c.04-3.82-1.65-6.51-4.46-6.51-2.43 0-4.3 2.2-4.3 5.66 0 3.54 1.88 5.47 4.31 5.47 1.77 0 3.68-.86 4.2-3.48H61.6c-.22.63-.65.93-1.13.93-.8 0-1.49-.83-1.49-2.07h5.75zM65.5 18.19h3.02v-5.37c0-1.34.24-2.17 1.17-2.17.85 0 1.05.93 1.05 1.97v5.57h3.01v-6.31c0-2.9-.94-4.52-2.93-4.52-1.15 0-1.88.68-2.56 1.95V7.66H65.5v10.53zM83.06 18.19V3.72h-3.01v5c-.64-1.04-1.3-1.36-2.26-1.36-1.8 0-3.21 2.27-3.21 5.76 0 2.98 1.16 5.37 3.44 5.37.97 0 1.62-.42 2.33-1.7v1.4h2.7zm-4.28-2.71c-.99 0-1.2-1.29-1.2-2.4 0-1.16.28-2.49 1.28-2.49s1.3 1.27 1.3 2.43c0 1.23-.34 2.46-1.38 2.46zM92.66 11.74c0-1.13.51-1.83 1.4-1.83.72 0 1.34.86 1.34 1.83h-2.74zm5.75 2.13c.04-3.82-1.65-6.51-4.46-6.51-2.43 0-4.3 2.2-4.3 5.66 0 3.54 1.89 5.47 4.32 5.47 1.76 0 3.67-.86 4.2-3.48h-2.89c-.21.63-.65.93-1.13.93-.8 0-1.49-.83-1.49-2.07h5.75zM50.47 18.19h3.01v-3.64c0-2.27.62-3.37 1.85-3.37.2 0 .42.02.63.06V7.66c-.13-.02-.26-.02-.4-.02-1.17 0-1.9.15-2.32 1.8h-.03V7.65h-2.74v10.53zM84.14 18.2h3v-3.63c0-2.27.63-3.37 1.86-3.37.2 0 .42.02.62.06V7.68c-.13-.02-.26-.02-.4-.02-1.16 0-1.9.14-2.32 1.79h-.03V7.68h-2.73V18.2z"/>
</svg>