<svg xmlns="http://www.w3.org/2000/svg" fill="none" viewBox="0 0 67 18">
    <path fill="currentColor" d="M37.77 6.07c0-1.94.03-3.74.13-5.4l-5.1.96v.47l.5.07c.37.03.6.16.73.36.14.24.24.57.3 1.07.07.97.14 3.17.1 6.63 0 3.44-.03 5.6-.1 6.44 1.84.4 3.27.56 4.34.56 2 0 3.56-.56 4.7-1.73a6.42 6.42 0 001.73-4.7c0-1.57-.43-2.87-1.3-3.9a4.09 4.09 0 00-3.27-1.53c-.86 0-1.76.23-2.76.7zm.1 10.26c-.07-1.06-.14-4.26-.14-9.5.3-.1.7-.16 1.2-.16.8 0 1.44.4 1.9 1.23.47.83.7 1.83.7 3.1 0 1.57-.26 2.83-.8 3.9-.53 1.03-1.2 1.57-2.03 1.57-.27-.07-.53-.1-.83-.14zM13.67 1H.33v.67l.7.06c.54.1.9.3 1.14.6.23.34.36.87.4 1.6.26 3.6.26 6.97 0 10.07-.07.73-.2 1.27-.4 1.6-.24.33-.6.53-1.14.6l-.7.1v.67h8.6v-.67l-.9-.07c-.53-.06-.9-.3-1.13-.6a3.1 3.1 0 01-.4-1.6c-.1-1.33-.17-2.86-.17-4.56l1.8.03c.97.03 1.64.77 1.97 2.23h.67V6.3h-.67c-.33 1.43-.97 2.17-1.97 2.2l-1.8.03c0-3 .07-5.13.17-6.43h2.63C11 2.1 12.27 3.3 13 5.7l.8-.23L13.67 1zM12.1 11.27c0 1.73.5 3.16 1.47 4.3.96 1.13 2.4 1.66 4.2 1.66a5.6 5.6 0 004.33-1.73 6 6 0 001.57-4.3 6.4 6.4 0 00-1.47-4.3c-.97-1.13-2.4-1.67-4.2-1.67a5.6 5.6 0 00-4.33 1.74 6 6 0 00-1.57 4.3zm7.43-3.8c.4.96.57 2.23.57 3.76 0 3.54-.73 5.27-2.17 5.27-.73 0-1.3-.5-1.7-1.5-.4-1-.56-2.27-.56-3.77 0-3.5.73-5.23 2.16-5.23.74-.03 1.3.47 1.7 1.47zm28.17 8.1a5.68 5.68 0 004.17 1.66 5.6 5.6 0 002.73-.63c.8-.4 1.43-.9 1.87-1.5l-.34-.4a4 4 0 01-2.53.83c-1.33 0-2.37-.43-3.07-1.33a4.93 4.93 0 01-1-3.5h7.14c0-1.6-.4-2.9-1.24-3.93-.83-1-2-1.5-3.5-1.5-1.86 0-3.3.6-4.33 1.76a6.24 6.24 0 00-1.53 4.3 5.7 5.7 0 001.63 4.24zm2.47-8.37c.36-.8.83-1.2 1.46-1.2 1 0 1.5 1.27 1.5 3.83l-3.53.07c.03-1 .2-1.9.57-2.7zm15.46-1.33c-.9-.4-2.03-.64-3.4-.64A5 5 0 0058.9 6.3a3.28 3.28 0 00-1.27 2.6c0 .9.27 1.6.77 2.1s1.3.93 2.33 1.3c.94.33 1.6.67 1.94.97.33.33.53.7.53 1.2 0 .46-.17.9-.53 1.23-.34.37-.8.53-1.4.53-1.47 0-2.57-1.06-3.34-3.2l-.56.17.13 3.33c1.2.47 2.53.7 4 .7 1.53 0 2.7-.33 3.57-1.03a3.4 3.4 0 001.3-2.83c0-.8-.2-1.47-.64-1.97a5.46 5.46 0 00-2.13-1.33 8.33 8.33 0 01-2.27-1.1c-.4-.34-.6-.74-.6-1.24s.14-.9.44-1.23c.3-.33.66-.47 1.13-.47 1.33 0 2.3.97 2.9 2.87l.57-.17-.14-2.86zm-32.06-.3a3 3 0 00-3.3.37A4.5 4.5 0 0028.8 7.9l.03-2.67-5.06 1v.47l.5.03c.63.07 1 .57 1.06 1.47.2 2.07.2 4.27 0 6.6-.06.9-.43 1.37-1.06 1.47l-.5.06v.64h7.06v-.64l-.9-.06c-.63-.07-1-.57-1.06-1.47-.2-1.93-.24-4-.07-6.13.2-.34.63-.54 1.3-.6.67-.07 1.43.13 2.23.6l1.24-3.1z"/>
</svg>