<svg xmlns="http://www.w3.org/2000/svg" fill="none" viewBox="0 0 77 17">
  <defs/>
  <path fill="currentColor" fill-rule="evenodd" d="M76.154 13.661l-.3.06a4.382 4.382 0 01-.818.063c-.932 0-1.263-.479-1.263-1.828v-4.26h2.368V5.239h-2.368V1.774L70.276 2.95v2.29h-2.053v1.223h1.758c.12 0 .238.118.239.237v5.51c0 2.44.608 4.065 3.832 4.065.677 0 1.2-.075 1.724-.148l.379-.051V13.66zM42.923 4.99c-3.43 0-5.74 2.271-5.74 5.651 0 3.367 2.31 5.63 5.74 5.63 3.432 0 5.743-2.263 5.743-5.63 0-3.38-2.311-5.65-5.743-5.65zm0 8.602c-1.962 0-2.158-2.28-2.158-2.951 0-.677.196-2.972 2.158-2.972s2.158 2.295 2.158 2.972c0 .672-.196 2.951-2.158 2.951zM52.205 4.33a2.026 2.026 0 002.024-2.023A2.026 2.026 0 0052.205.284a2.026 2.026 0 00-2.023 2.023c0 1.116.907 2.024 2.023 2.024zM54.33 14.81c-.12 0-.24-.12-.24-.24V5.24l-4.89.002v1.221h1.063c.12 0 .238.119.24.238v7.87H50.5c0 .12-.118.24-.238.24h-1.064v1.221h6.194V14.81H54.33zM67.628 14.571V9.325c0-2.093-.985-4.33-3.835-4.33-1.497 0-2.623.6-3.348 1.783l-.1.162V5.474c0-.118-.116-.231-.232-.235h-4.4v1.224h1.065c.116 0 .232.113.238.227v9.341h3.63l.002-4.985c0-2.185.661-3.036 1.942-3.036.234-.002.678.058 1.011.485.304.39.452 1.07.452 2.074v5.463h4.878V14.81H67.86a.257.257 0 01-.23-.239zM16.082 5.004c-3.384 0-5.376 2.5-5.376 5.63 0 3.38 2.34 5.65 5.83 5.65a9.563 9.563 0 003.74-.787l.061-.026v-2.638c-.065.038-.148.081-.148.081-1.241.66-2.579.8-3.09.8-1.57 0-2.598-.75-2.808-1.837l-.012-.064h6.88v-.773c0-3.836-1.966-6.036-5.077-6.036zm-1.857 4.518l.006-.06c.078-.728.502-2.023 1.87-2.023 1.307 0 1.686 1.045 1.77 1.779.028.187-.1.306-.24.304h-3.406zM30.82 1.93h-5.492v1.222h1.064c.12 0 .238.119.239.239v11.18c-.001.12-.12.238-.24.238h-1.063v1.222h6.246V14.81H30.51a.256.256 0 01-.238-.239v-3.398h1.216c3.277 0 5.277-1.95 5.277-4.59 0-2.781-1.884-4.652-5.945-4.652zm.222 6.54h-.771V4.61h.77c1.314 0 2.079.715 2.079 1.913 0 1.24-.747 1.948-2.078 1.948zM9.156 12.96a.253.253 0 01-.237.236H4.953v-9.46c0-.118.118-.236.237-.236h1.053V2.29H0V3.5h1.053c.117 0 .232.113.236.23v10.861c-.004.117-.119.23-.236.23H0v1.21h10.366v-4.125h-1.21v1.053z" clip-rule="evenodd"/>
</svg>