<svg xmlns="http://www.w3.org/2000/svg" fill="none" viewBox="0 0 200 17"><defs/><path fill="currentColor" d="M0 16.15V.55h5.05C6.97.56 8.22.64 8.8.8c.9.23 1.64.74 2.24 1.53.6.78.9 1.8.9 3.03 0 .96-.17 1.77-.51 2.42A4.3 4.3 0 0110.1 9.3c-.54.37-1.08.61-1.63.74-.75.14-1.84.22-3.27.22H3.15v5.88H0zM3.15 3.2v4.43h1.72c1.24 0 2.07-.08 2.5-.25A2.07 2.07 0 008.7 5.4c0-.56-.17-1.03-.5-1.4-.34-.37-.76-.6-1.27-.69-.38-.07-1.13-.1-2.27-.1H3.15zM16.76 16.15h-2.99V4.85h2.78v1.61c.48-.76.9-1.26 1.28-1.5s.81-.36 1.3-.36c.68 0 1.33.19 1.96.56l-.92 2.6c-.5-.32-.97-.48-1.4-.48-.42 0-.78.12-1.07.35-.3.23-.52.64-.7 1.24-.16.6-.24 1.87-.24 3.8v3.48zM21.09 10.34c0-.99.24-1.95.73-2.88a5.05 5.05 0 012.08-2.13 6.2 6.2 0 013-.73 5.63 5.63 0 015.85 5.87c0 1.71-.55 3.13-1.66 4.26a5.58 5.58 0 01-4.16 1.68 6.6 6.6 0 01-2.97-.7 4.83 4.83 0 01-2.14-2.06 6.9 6.9 0 01-.73-3.3zm3.06.16c0 1.12.27 1.98.8 2.58.53.6 1.19.9 1.97.9s1.43-.3 1.96-.9c.53-.6.8-1.46.8-2.6 0-1.1-.27-1.96-.8-2.55a2.5 2.5 0 00-1.96-.9c-.78 0-1.44.3-1.97.9-.53.6-.8 1.45-.8 2.57zM34.52 16.15V.55h6.63c1.67 0 2.88.15 3.63.43.76.28 1.36.77 1.82 1.49.45.72.68 1.54.68 2.46 0 1.17-.34 2.14-1.03 2.9a4.97 4.97 0 01-3.09 1.44c.68.4 1.24.83 1.68 1.3.45.48 1.05 1.33 1.8 2.54l1.9 3.04h-3.76l-2.28-3.4a21.33 21.33 0 00-1.66-2.28c-.3-.32-.61-.53-.94-.65a5.05 5.05 0 00-1.59-.18h-.64v6.51h-3.15zm3.15-9H40c1.51 0 2.46-.06 2.83-.19.38-.13.67-.35.89-.66.2-.31.31-.7.31-1.17 0-.52-.14-.95-.42-1.27a1.9 1.9 0 00-1.18-.61c-.26-.04-1.02-.06-2.3-.06h-2.46v3.96zM56.17 12.56l2.98.5a4.9 4.9 0 01-1.82 2.5c-.82.56-1.86.85-3.1.85-1.96 0-3.41-.64-4.36-1.93a6.47 6.47 0 01-1.12-3.9c0-1.86.5-3.33 1.47-4.39a4.83 4.83 0 013.72-1.6 5 5 0 013.97 1.68c.98 1.1 1.44 2.8 1.4 5.1h-7.5c.03.88.27 1.57.73 2.07.46.49 1.04.73 1.73.73.46 0 .86-.12 1.18-.38.32-.26.56-.67.72-1.23zm.17-3.03c-.02-.86-.24-1.52-.67-1.96a2.05 2.05 0 00-1.55-.68c-.66 0-1.2.23-1.62.7a2.76 2.76 0 00-.63 1.94h4.47zM63.38 8.3l-2.71-.49c.3-1.1.83-1.9 1.57-2.42.75-.53 1.85-.8 3.32-.8 1.33 0 2.33.17 2.98.49a2.9 2.9 0 011.37 1.2c.27.48.4 1.37.4 2.67l-.03 3.49c0 1 .05 1.73.14 2.2.1.47.28.97.55 1.51H68a11.01 11.01 0 01-.4-1.23 5.4 5.4 0 01-1.63 1.11 4.7 4.7 0 01-1.87.38 3.87 3.87 0 01-2.75-.95c-.67-.63-1-1.43-1-2.4 0-.63.15-1.2.46-1.7.3-.5.73-.88 1.27-1.14.56-.27 1.35-.5 2.39-.7 1.4-.27 2.36-.51 2.9-.74v-.3c0-.57-.14-.98-.43-1.22-.28-.25-.81-.37-1.6-.37-.53 0-.95.1-1.25.31-.3.21-.54.58-.72 1.1zm4 2.43c-.38.12-.99.28-1.82.45-.83.18-1.37.35-1.63.52-.39.28-.58.63-.58 1.06 0 .42.15.78.47 1.08.3.3.7.46 1.19.46.54 0 1.05-.18 1.54-.53.36-.27.6-.6.71-1 .08-.25.12-.73.12-1.45v-.6zM72.66 16.15V.55h3v15.6h-3zM81.65 16.15V3.2h-4.63V.56h12.4v2.63H84.8v12.96h-3.15zM90.42 3.32V.56h3v2.76h-3zm0 12.83V4.85h3v11.3h-3zM95.65 4.85h2.76V6.4a4.43 4.43 0 013.52-1.8c.72 0 1.35.15 1.88.44.54.3.97.75 1.31 1.36.5-.6 1.03-1.06 1.61-1.36.57-.3 1.19-.44 1.84-.44.83 0 1.53.17 2.1.5.58.34 1.01.83 1.3 1.49.2.48.3 1.26.3 2.34v7.22h-2.99V9.7c0-1.12-.1-1.84-.3-2.17-.28-.42-.7-.63-1.28-.63-.42 0-.81.12-1.18.38-.37.25-.64.63-.8 1.13a8.02 8.02 0 00-.25 2.33v5.42h-2.98V9.96c0-1.1-.06-1.8-.16-2.13-.11-.32-.28-.55-.5-.71a1.54 1.54 0 00-.9-.23 2.07 2.07 0 00-2.04 1.45 8.16 8.16 0 00-.25 2.32v5.5h-2.99V4.85zM121.2 12.56l2.97.5a4.9 4.9 0 01-1.81 2.5c-.83.56-1.86.85-3.1.85-1.97 0-3.42-.64-4.36-1.93a6.47 6.47 0 01-1.12-3.9c0-1.86.49-3.33 1.47-4.39a4.83 4.83 0 013.71-1.6 5 5 0 013.98 1.68c.97 1.1 1.44 2.8 1.4 5.1h-7.5c.02.88.27 1.57.73 2.07.46.49 1.03.73 1.72.73.47 0 .86-.12 1.18-.38.32-.26.56-.67.72-1.23zm.16-3.03c-.02-.86-.24-1.52-.67-1.96a2.05 2.05 0 00-1.55-.68c-.65 0-1.19.23-1.61.7a2.76 2.76 0 00-.63 1.94h4.46zM134.28 16.53v-9.5h-3.39V5.1h9.09v1.93h-3.39v9.5h-2.3zM141.08 16.53V5.1h4.86c1.23 0 2.11.1 2.66.3.56.21 1 .58 1.34 1.1.33.53.5 1.13.5 1.8 0 .86-.26 1.57-.76 2.13-.5.56-1.26.91-2.26 1.06.5.29.9.6 1.23.96.33.34.77.96 1.32 1.85l1.4 2.23h-2.77l-1.67-2.49c-.59-.89-1-1.44-1.21-1.67-.22-.24-.45-.4-.7-.48a3.7 3.7 0 00-1.16-.13h-.47v4.77h-2.3zm2.31-6.6h1.71c1.1 0 1.8-.04 2.08-.14.27-.1.49-.25.64-.48.16-.23.24-.52.24-.86 0-.38-.1-.7-.31-.93-.2-.24-.5-.39-.87-.45-.19-.03-.75-.04-1.69-.04h-1.8v2.9z"/><path fill="currentColor" d="M162.53 16.53h-2.5l-1-2.6h-4.58l-.94 2.6h-2.45L155.5 5.1h2.44l4.58 11.43zm-4.25-4.52l-1.57-4.25-1.55 4.25h3.12zM163.36 5.1h4.22c.95 0 1.68.07 2.17.22.68.2 1.25.54 1.73 1.05a5 5 0 011.1 1.86c.24.72.36 1.62.36 2.7 0 .94-.11 1.75-.35 2.43-.28.83-.69 1.5-1.22 2.02-.4.39-.94.7-1.62.91-.51.16-1.2.24-2.05.24h-4.34V5.1zm2.3 1.93v7.58h1.73a6.3 6.3 0 001.4-.11c.37-.1.68-.26.93-.48.25-.22.45-.59.6-1.1a7.5 7.5 0 00.24-2.1c0-.88-.08-1.56-.24-2.03a2.61 2.61 0 00-.65-1.11 2.2 2.2 0 00-1.07-.54c-.32-.07-.95-.1-1.9-.1h-1.03zM174.44 16.53V5.1h2.31v11.43h-2.3zM178.58 16.53V5.1h2.25l4.68 7.63V5.1h2.14v11.43h-2.31l-4.61-7.45v7.45h-2.15zM195.02 12.33V10.4H200v4.56a7.67 7.67 0 01-4.9 1.77c-1.19 0-2.23-.25-3.12-.75a4.81 4.81 0 01-2-2.15 6.97 6.97 0 01-.67-3.05c0-1.2.25-2.25.75-3.18a5.04 5.04 0 012.19-2.13 5.92 5.92 0 012.73-.57c1.42 0 2.53.3 3.33.9.8.6 1.31 1.41 1.54 2.46l-2.3.43a2.4 2.4 0 00-.9-1.32c-.45-.33-1-.5-1.67-.5-1 0-1.8.33-2.4.97-.6.63-.9 1.58-.9 2.84 0 1.36.3 2.38.91 3.06.6.68 1.4 1.01 2.37 1.01a4 4 0 001.45-.28c.5-.19.9-.42 1.26-.7v-1.44h-2.65z"/></svg>