<svg xmlns="http://www.w3.org/2000/svg" fill="none" viewBox="0 0 60 24">
	<path fill-rule="evenodd" fill="#000" d="M.167 23.967h23.8V0H0v23.967h.167ZM16.3 17c-.1-.1-.2-.167-.333-.267-1.1-1-2.3-1.933-3.534-2.733a36.557 36.557 0 0 1-3.566 1.9l-7.434-1.5A31.923 31.923 0 0 0 5.7 13c.933-.367 1.833-.8 2.733-1.267-.566-.266-1.1-.5-1.7-.733-1.4-.567-2.833-1-4.266-1.4L9.9 8.1c.833.4 1.633.8 2.467 1.267.9-.667 1.766-1.367 2.6-2.1.1-.1.2-.167.333-.267l6.267-1.2a29.948 29.948 0 0 1-5.634 5.8 31.136 31.136 0 0 1 6.667 6.567L16.333 17H16.3Z" clip-rule="evenodd"/>
	<path fill="#000" d="m32.867 12.3-4.1-5.4H31.8l2.7 3.533L37.1 6.9h2.967l-4.134 5.433 4.234 5.534h-3.034l-2.766-3.634-2.6 3.634H28.8l4.1-5.534-.033-.033ZM45.7 17.867c-2.1 0-3.533-1.234-3.533-3.667V9.333H40.6V6.9h1.567v-2l2.6-.8v2.8h2.366v2.433h-2.366V14.1c0 .833.433 1.3 1.066 1.3h1.3v2.433H45.7v.034ZM54.367 18.067c-1.534 0-2.667-.667-3.467-1.7v1.466h-2.467V2.5h2.6v5.767C51.833 7.333 53 6.7 54.467 6.7c3.033 0 5.433 2.567 5.433 5.767s-2.367 5.6-5.5 5.6h-.033ZM57.2 12.4c0-1.833-1.3-3.133-3.133-3.133-1.834 0-3.134 1.3-3.134 3.133s1.3 3.133 3.134 3.133c1.833 0 3.133-1.3 3.133-3.133Z"/>
</svg>