<svg width="400" height="160" xmlns="http://www.w3.org/2000/svg">
  <!-- Fond gris clair comme TradingView -->
  <rect width="400" height="160" fill="#f8f9fa"/>
  
  <!-- Grille de lignes horizontales -->
  <g stroke="#e6e6e6" stroke-width="0.5" opacity="0.7">
    <line x1="0" y1="32" x2="400" y2="32"/>
    <line x1="0" y1="64" x2="400" y2="64"/>
    <line x1="0" y1="96" x2="400" y2="96"/>
    <line x1="0" y1="128" x2="400" y2="128"/>
  </g>
  
  <!-- Grille de lignes verticales -->
  <g stroke="#e6e6e6" stroke-width="0.5" opacity="0.7">
    <line x1="50" y1="0" x2="50" y2="160"/>
    <line x1="100" y1="0" x2="100" y2="160"/>
    <line x1="150" y1="0" x2="150" y2="160"/>
    <line x1="200" y1="0" x2="200" y2="160"/>
    <line x1="250" y1="0" x2="250" y2="160"/>
    <line x1="300" y1="0" x2="300" y2="160"/>
    <line x1="350" y1="0" x2="350" y2="160"/>
  </g>
  
  <!-- Zone verte (signal) -->
  <rect x="20" y="20" width="360" height="25" fill="#c8e6c9" stroke="#4caf50" stroke-width="1" rx="3" opacity="0.8"/>
  <text x="30" y="37" font-family="monospace" font-size="10" fill="#2e7d32">Signal: +2.00% H4/H4 Échéance: 3:29:04</text>
  
  <!-- Zone rouge (stop loss) -->
  <rect x="20" y="115" width="360" height="25" fill="#ffcdd2" stroke="#f44336" stroke-width="1" rx="3" opacity="0.8"/>
  <text x="30" y="132" font-family="monospace" font-size="10" fill="#c62828">Stop Loss: 103.274 (-0.19%)</text>
  
  <!-- Chandeliers japonais verts (haussiers) -->
  <g>
    <!-- Chandelier 1 -->
    <line x1="30" y1="50" x2="30" y2="110" stroke="#4caf50" stroke-width="2"/>
    <rect x="26" y="60" width="8" height="35" fill="#4caf50"/>
    
    <!-- Chandelier 2 -->
    <line x1="50" y1="45" x2="50" y2="115" stroke="#4caf50" stroke-width="2"/>
    <rect x="46" y="55" width="8" height="40" fill="#4caf50"/>
    
    <!-- Chandelier 3 -->
    <line x1="70" y1="40" x2="70" y2="105" stroke="#4caf50" stroke-width="2"/>
    <rect x="66" y="50" width="8" height="35" fill="#4caf50"/>
    
    <!-- Chandelier 4 -->
    <line x1="90" y1="35" x2="90" y2="100" stroke="#4caf50" stroke-width="2"/>
    <rect x="86" y="45" width="8" height="35" fill="#4caf50"/>
    
    <!-- Chandelier 5 -->
    <line x1="110" y1="30" x2="110" y2="95" stroke="#4caf50" stroke-width="2"/>
    <rect x="106" y="40" width="8" height="35" fill="#4caf50"/>
    
    <!-- Chandelier 6 -->
    <line x1="130" y1="25" x2="130" y2="90" stroke="#4caf50" stroke-width="2"/>
    <rect x="126" y="35" width="8" height="35" fill="#4caf50"/>
    
    <!-- Chandelier 7 -->
    <line x1="150" y1="20" x2="150" y2="85" stroke="#4caf50" stroke-width="2"/>
    <rect x="146" y="30" width="8" height="35" fill="#4caf50"/>
    
    <!-- Chandelier 8 -->
    <line x1="170" y1="25" x2="170" y2="90" stroke="#4caf50" stroke-width="2"/>
    <rect x="166" y="35" width="8" height="35" fill="#4caf50"/>
    
    <!-- Chandelier 9 -->
    <line x1="190" y1="30" x2="190" y2="95" stroke="#4caf50" stroke-width="2"/>
    <rect x="186" y="40" width="8" height="35" fill="#4caf50"/>
    
    <!-- Chandelier 10 -->
    <line x1="210" y1="35" x2="210" y2="100" stroke="#4caf50" stroke-width="2"/>
    <rect x="206" y="45" width="8" height="35" fill="#4caf50"/>
  </g>
  
  <!-- Chandeliers japonais rouges (baissiers) -->
  <g>
    <!-- Chandelier 11 -->
    <line x1="230" y1="40" x2="230" y2="105" stroke="#f44336" stroke-width="2"/>
    <rect x="226" y="55" width="8" height="30" fill="#f44336"/>
    
    <!-- Chandelier 12 -->
    <line x1="250" y1="45" x2="250" y2="110" stroke="#f44336" stroke-width="2"/>
    <rect x="246" y="60" width="8" height="30" fill="#f44336"/>
    
    <!-- Chandelier 13 -->
    <line x1="270" y1="50" x2="270" y2="115" stroke="#f44336" stroke-width="2"/>
    <rect x="266" y="65" width="8" height="30" fill="#f44336"/>
    
    <!-- Chandelier 14 -->
    <line x1="290" y1="55" x2="290" y2="120" stroke="#f44336" stroke-width="2"/>
    <rect x="286" y="70" width="8" height="30" fill="#f44336"/>
    
    <!-- Chandelier 15 -->
    <line x1="310" y1="60" x2="310" y2="125" stroke="#f44336" stroke-width="2"/>
    <rect x="306" y="75" width="8" height="30" fill="#f44336"/>
    
    <!-- Chandelier 16 -->
    <line x1="330" y1="65" x2="330" y2="130" stroke="#f44336" stroke-width="2"/>
    <rect x="326" y="80" width="8" height="30" fill="#f44336"/>
    
    <!-- Chandelier 17 -->
    <line x1="350" y1="70" x2="350" y2="135" stroke="#f44336" stroke-width="2"/>
    <rect x="346" y="85" width="8" height="30" fill="#f44336"/>
    
    <!-- Chandelier 18 -->
    <line x1="370" y1="75" x2="370" y2="140" stroke="#f44336" stroke-width="2"/>
    <rect x="366" y="90" width="8" height="30" fill="#f44336"/>
  </g>
  
  <!-- Prix actuel en haut à droite -->
  <rect x="340" y="8" width="55" height="18" fill="white" stroke="#ddd" rx="2"/>
  <text x="345" y="20" font-family="monospace" font-size="11" fill="#333">104.472</text>
  
  <!-- Ligne verticale de prix centrale -->
  <line x1="200" y1="0" x2="200" y2="160" stroke="#999" stroke-width="1" opacity="0.5"/>
  
  <!-- Indicateur LIVE -->
  <circle cx="390" cy="12" r="3" fill="#4caf50"/>
  <text x="375" y="16" font-family="Arial" font-size="9" fill="#4caf50">LIVE</text>
</svg> 